<?xml version="1.0" encoding="utf-8"?>
<!-- Generator: Adobe Illustrator 13.0.0, SVG Export Plug-In . SVG Version: 6.00 Build 14948)  -->
<!DOCTYPE svg PUBLIC "-//W3C//DTD SVG 1.1//EN" "http://www.w3.org/Graphics/SVG/1.1/DTD/svg11.dtd">
<svg version="1.1" id="Layer_1" xmlns="http://www.w3.org/2000/svg" xmlns:xlink="http://www.w3.org/1999/xlink" x="0px" y="0px"
	 width="147.674px" height="29.673px" viewBox="0 0 147.674 29.673" enable-background="new 0 0 147.674 29.673"
	 xml:space="preserve">
<g>
	<g>
		<path d="M34.718,15.495h3.822l4.826,8.876v-8.876h3.245v12.939h-3.822l-4.826-8.876v8.876h-3.244V15.495z"/>
		<path d="M49.952,15.495h9.235v2.522h-5.813v2.407h5.467v2.523h-5.467v2.964h6.009v2.522h-9.431V15.495z"/>
		<path d="M60.805,15.495h12.23v2.522h-4.399v10.417h-3.423V18.018h-4.408V15.495z"/>
		<path d="M74.155,15.495H85.31v2.02l-7.119,8.397h7.324v2.522H73.951v-2.02l7.121-8.397h-6.916V15.495z"/>
		<path d="M86.875,15.495h3.279l2.294,9.402l2.274-9.402h3.298l2.275,9.402l2.294-9.402h3.253l-3.129,12.939h-3.946l-2.408-9.837
			l-2.383,9.837h-3.947L86.875,15.495z"/>
		<path d="M108.082,15.495h9.235v2.522h-5.813v2.407h5.467v2.523h-5.467v2.964h6.009v2.522h-9.432V15.495z"/>
		<path d="M123.938,23.537v4.897h-3.422V15.495h5.228c1.749,0,3.029,0.286,3.845,0.857c0.814,0.572,1.223,1.479,1.223,2.713
			c0,0.855-0.213,1.559-0.637,2.105c-0.423,0.55-1.062,0.955-1.916,1.215c0.47,0.104,0.887,0.339,1.259,0.705
			c0.37,0.368,0.746,0.924,1.124,1.669l1.858,3.675h-3.645l-1.617-3.215c-0.325-0.648-0.656-1.089-0.991-1.326
			c-0.337-0.238-0.781-0.356-1.339-0.356H123.938z M125.38,21.232c0.717,0,1.231-0.13,1.541-0.39
			c0.312-0.261,0.467-0.687,0.467-1.284c0-0.589-0.155-1.01-0.467-1.264c-0.31-0.255-0.824-0.382-1.541-0.382h-1.442v3.319H125.38z"
			/>
		<path d="M134.533,15.495h3.422v4.723l4.934-4.723h3.975l-6.391,6.128l7.047,6.812h-4.284l-5.28-5.096v5.096h-3.422V15.495z"/>
	</g>
	<g>
		<path d="M34.783,1.294h0.67v4.355l4.633-4.355h0.901l-5.025,4.735l5.357,5.378h-0.887l-4.979-4.993v4.993h-0.67V1.294z"/>
		<path d="M43.176,1.294h0.677v9.557h4.924v0.556h-5.602V1.294z"/>
		<path d="M50.896,1.294h5.717v0.562h-5.026v3.881h4.816v0.549h-4.816v4.572h5.148v0.549h-5.839V1.294z"/>
		<path d="M59.654,1.294h0.705v10.113h-0.705V1.294z"/>
		<path d="M63.746,1.294h1.001l4.905,9.246V1.294h0.677v10.113h-0.961L64.438,2.1v9.307h-0.691V1.294z"/>
		<path d="M74.129,1.294h5.718v0.562H74.82v3.881h4.815v0.549H74.82v4.572h5.148v0.549h-5.84V1.294z"/>
		<path d="M87.081,6.665c0.279,0.1,0.551,0.312,0.812,0.637c0.186,0.235,0.449,0.683,0.793,1.341l1.416,2.764h-0.725l-1.442-2.777
			c-0.376-0.727-0.734-1.208-1.076-1.443c-0.353-0.235-0.83-0.352-1.431-0.352h-1.835v4.572h-0.678V1.294h2.743
			c1.034,0,1.806,0.242,2.315,0.725c0.512,0.483,0.766,1.212,0.766,2.188c0,0.628-0.133,1.156-0.399,1.585
			C88.088,6.211,87.668,6.502,87.081,6.665z M83.593,1.85v4.422h2.235c0.721,0,1.268-0.187,1.639-0.562
			c0.37-0.375,0.556-0.927,0.556-1.659c0-0.727-0.186-1.275-0.556-1.646c-0.371-0.371-0.918-0.555-1.639-0.555H83.593z"/>
		<path d="M91.624,1.294h7.945v0.549l-7.287,9.008h7.444v0.556h-8.259v-0.549l7.275-9.002h-7.119V1.294z"/>
		<path d="M102.035,1.294h5.716v0.562h-5.025v3.881h4.816v0.549h-4.816v4.572h5.148v0.549h-5.839V1.294z"/>
		<path d="M110.664,1.294h0.678v6.144c0,1.283,0.225,2.206,0.678,2.77c0.445,0.561,1.172,0.84,2.173,0.84c1,0,1.723-0.28,2.168-0.84
			c0.451-0.564,0.678-1.487,0.678-2.77V1.294h0.677v6.313c0,1.318-0.297,2.314-0.893,2.987c-0.593,0.673-1.47,1.008-2.63,1.008
			c-1.164,0-2.042-0.335-2.634-1.008c-0.596-0.673-0.895-1.669-0.895-2.987V1.294z"/>
		<path d="M127.867,10.546V7.003h-2.577V6.449h3.249v4.423c-0.482,0.239-1.013,0.417-1.592,0.535
			c-0.577,0.122-1.195,0.187-1.856,0.196c-1.462,0-2.604-0.463-3.426-1.389c-0.827-0.92-1.239-2.205-1.239-3.854
			c0-1.653,0.412-2.941,1.239-3.867c0.821-0.922,1.964-1.382,3.426-1.382c0.605,0,1.178,0.061,1.715,0.183
			c0.543,0.131,1.038,0.324,1.49,0.576v0.656c-0.456-0.252-0.944-0.444-1.465-0.576c-0.513-0.126-1.056-0.189-1.624-0.189
			c-1.358,0-2.381,0.386-3.061,1.159c-0.683,0.767-1.023,1.915-1.023,3.44c0,1.549,0.341,2.713,1.023,3.495
			c0.68,0.786,1.702,1.179,3.061,1.179c0.556,0,1.054-0.039,1.491-0.115C127.131,10.837,127.521,10.713,127.867,10.546z"/>
		<path d="M131.703,1.294h5.717v0.562h-5.026v3.881h4.814v0.549h-4.814v4.572h5.149v0.549h-5.84V1.294z"/>
		<path d="M144.653,6.665c0.28,0.1,0.551,0.312,0.813,0.637c0.184,0.235,0.449,0.683,0.793,1.341l1.415,2.764h-0.726l-1.44-2.777
			c-0.377-0.727-0.736-1.208-1.078-1.443c-0.353-0.235-0.828-0.352-1.43-0.352h-1.834v4.572h-0.68V1.294h2.743
			c1.035,0,1.806,0.242,2.315,0.725c0.513,0.483,0.768,1.212,0.768,2.188c0,0.628-0.134,1.156-0.399,1.585
			C145.66,6.211,145.238,6.502,144.653,6.665z M141.166,1.85v4.422h2.233c0.723,0,1.269-0.187,1.641-0.562
			c0.368-0.375,0.555-0.927,0.555-1.659c0-0.727-0.187-1.275-0.555-1.646c-0.372-0.371-0.918-0.555-1.641-0.555H141.166z"/>
	</g>
	<path fill="#5AAB61" d="M14.187,9.28c0,2.709-2.111,4.904-4.72,4.904H4.72C2.113,14.185,0,11.99,0,9.28V4.904
		C0,2.195,2.113,0,4.72,0h4.746c2.609,0,4.72,2.195,4.72,4.904V9.28z"/>
	<path fill="#5AAB61" d="M14.187,24.769c0,2.709-2.111,4.904-4.718,4.904H4.72c-2.607,0-4.72-2.195-4.72-4.904v-4.375
		c0-2.709,2.113-4.905,4.72-4.905h4.748c2.607,0,4.718,2.196,4.718,4.905V24.769z"/>
	<path fill="#5AAB61" d="M29.751,9.278c0,2.712-2.112,4.907-4.719,4.907h-4.746c-2.607,0-4.721-2.195-4.721-4.907V4.904
		C15.566,2.195,17.679,0,20.287,0h4.746c2.607,0,4.719,2.195,4.719,4.904V9.278z"/>
	<path fill="#358856" d="M29.751,24.769c0,2.709-2.112,4.904-4.719,4.904h-4.749c-2.604,0-4.718-2.195-4.718-4.904v-4.375
		c0-2.709,2.113-4.907,4.718-4.907h4.749c2.607,0,4.719,2.198,4.719,4.907V24.769z"/>
	<g>
		<g>
			<g>
				<path fill="#FFFFFF" d="M24.705,22.703c-0.015-0.059-0.058-0.106-0.115-0.129c-0.013-0.004-0.106-0.034-0.251-0.058
					c0.621-0.661,0.417-1.436,0.366-1.589c-0.015-0.055-0.058-0.102-0.115-0.121c-0.028-0.012-0.494-0.174-1.022,0.011
					c0.031-0.122,0.047-0.259,0.047-0.406c0-0.95-0.719-1.367-0.861-1.441c-0.054-0.028-0.116-0.031-0.172-0.006
					c-0.037,0.019-0.874,0.418-0.874,1.447c0,0.147,0.018,0.284,0.047,0.406c-0.531-0.187-0.999-0.022-1.026-0.011
					c-0.056,0.02-0.098,0.066-0.114,0.121c-0.05,0.153-0.255,0.928,0.367,1.589c-0.145,0.023-0.238,0.054-0.253,0.058
					c-0.056,0.022-0.098,0.07-0.114,0.129c-0.051,0.151-0.263,0.955,0.407,1.625c0.388,0.389,0.818,0.479,1.141,0.479
					c0.12,0,0.223-0.012,0.307-0.027v1.245c0,0.106,0.085,0.19,0.189,0.19c0.104,0,0.191-0.084,0.191-0.19v-1.247
					c0.083,0.018,0.188,0.029,0.308,0.029c0.321,0,0.754-0.091,1.143-0.479C24.968,23.658,24.755,22.854,24.705,22.703z
					 M22.468,24.187c-0.004,0.089-0.016,0.161-0.029,0.214c-0.202,0.045-0.71,0.098-1.15-0.342c-0.432-0.429-0.385-0.932-0.34-1.151
					c0.129-0.026,0.378-0.059,0.655,0.032c0.019,0.009,0.037,0.015,0.054,0.021c0.147,0.056,0.298,0.146,0.443,0.286
					c0.275,0.278,0.356,0.579,0.368,0.815V24.187z M22.468,22.419c-0.004,0.085-0.016,0.158-0.029,0.21
					c-0.125,0.03-0.368,0.059-0.639-0.026c-0.027-0.008-0.055-0.017-0.083-0.028c-0.14-0.056-0.289-0.146-0.428-0.282
					c-0.432-0.437-0.385-0.934-0.34-1.152c0.203-0.044,0.714-0.097,1.151,0.339c0.002,0.003,0.004,0.006,0.007,0.009
					c0.018,0.018,0.034,0.034,0.051,0.056c0.227,0.257,0.3,0.529,0.31,0.749V22.419z M22.66,21.464
					c-0.06-0.038-0.145-0.103-0.231-0.19c-0.011-0.011-0.02-0.021-0.028-0.032c-0.158-0.175-0.315-0.446-0.315-0.83
					c0-0.62,0.399-0.94,0.572-1.055c0.19,0.12,0.576,0.441,0.576,1.055c0,0.362-0.137,0.623-0.285,0.801
					c-0.031,0.029-0.061,0.062-0.086,0.092C22.785,21.376,22.712,21.432,22.66,21.464z M22.849,22.358
					c0-0.226,0.057-0.521,0.293-0.799c0.028-0.028,0.058-0.059,0.085-0.091c0.436-0.43,0.94-0.376,1.14-0.329
					c0.048,0.219,0.094,0.716-0.338,1.152c-0.142,0.137-0.288,0.227-0.428,0.282c-0.028,0.012-0.055,0.021-0.084,0.028
					c-0.271,0.085-0.513,0.057-0.639,0.026c-0.014-0.063-0.029-0.157-0.029-0.269V22.358z M24.03,24.059
					c-0.439,0.439-0.95,0.387-1.151,0.342c-0.043-0.203-0.098-0.712,0.34-1.154c0.14-0.137,0.285-0.228,0.429-0.284
					c0.026-0.008,0.054-0.02,0.082-0.028c0.271-0.085,0.513-0.053,0.639-0.026C24.416,23.127,24.461,23.626,24.03,24.059z"/>
			</g>
		</g>
		<g>
			<g>
				<path fill="#FFFFFF" d="M23.674,17.818c-0.332-0.069-0.672-0.107-1.016-0.107c-1.3,0-2.522,0.508-3.441,1.429
					c-0.92,0.918-1.425,2.143-1.425,3.443c0,1.084,0.364,2.141,1.027,2.992c-0.073,0.114-0.115,0.25-0.115,0.39
					c0,0.192,0.075,0.377,0.212,0.512c0.136,0.137,0.317,0.213,0.511,0.213c0.192,0,0.375-0.076,0.512-0.213
					c0.136-0.135,0.212-0.319,0.212-0.512s-0.076-0.374-0.212-0.509c-0.137-0.138-0.32-0.214-0.512-0.214
					c-0.116,0-0.223,0.026-0.325,0.076c-0.602-0.781-0.932-1.745-0.932-2.735c0-2.475,2.014-4.49,4.488-4.49
					c0.316,0,0.632,0.034,0.938,0.097c0.103,0.023,0.202-0.043,0.224-0.146C23.843,17.942,23.775,17.84,23.674,17.818z
					 M19.184,25.725c0.067-0.069,0.155-0.102,0.243-0.102c0.088,0,0.175,0.032,0.242,0.102c0.065,0.064,0.101,0.148,0.101,0.24
					c0,0.093-0.035,0.178-0.101,0.242c-0.132,0.135-0.352,0.135-0.484,0c-0.064-0.064-0.099-0.149-0.099-0.242
					C19.085,25.873,19.12,25.789,19.184,25.725z"/>
			</g>
		</g>
		<g>
			<g>
				<path fill="#FFFFFF" d="M26.5,19.59c0.074-0.119,0.114-0.25,0.114-0.392c0-0.195-0.075-0.377-0.212-0.513
					c-0.137-0.137-0.319-0.212-0.512-0.212c-0.192,0-0.373,0.075-0.509,0.212c-0.138,0.136-0.212,0.317-0.212,0.513
					c0,0.19,0.074,0.372,0.212,0.509c0.137,0.137,0.317,0.214,0.509,0.214c0.116,0,0.225-0.027,0.326-0.077
					c0.599,0.781,0.931,1.748,0.931,2.739c0,2.473-2.014,4.485-4.49,4.485c-0.264,0-0.532-0.022-0.792-0.066
					c-0.102-0.021-0.202,0.05-0.22,0.153c-0.018,0.101,0.05,0.201,0.154,0.218c0.281,0.053,0.572,0.079,0.858,0.079
					c1.301,0,2.524-0.509,3.445-1.427c0.917-0.921,1.424-2.142,1.424-3.442C27.527,21.495,27.163,20.441,26.5,19.59z M26.133,19.44
					c-0.065,0.063-0.151,0.101-0.243,0.101c-0.091,0-0.177-0.038-0.241-0.101c-0.135-0.134-0.135-0.354,0-0.484
					c0.064-0.064,0.15-0.101,0.241-0.101c0.092,0,0.178,0.036,0.243,0.101c0.064,0.064,0.1,0.149,0.1,0.242
					C26.233,19.289,26.197,19.374,26.133,19.44z"/>
			</g>
		</g>
		<g>
			<g>
				<path fill="#FFFFFF" d="M20.988,26.748l-0.071,0.179L20.988,26.748c-0.098-0.039-0.209,0.009-0.247,0.104
					c-0.042,0.1,0.007,0.208,0.104,0.246l0.007,0.004c0.022,0.011,0.044,0.014,0.068,0.014c0.075,0,0.15-0.048,0.178-0.12
					C21.135,26.896,21.085,26.785,20.988,26.748z"/>
			</g>
		</g>
		<g>
			<g>
				<path fill="#FFFFFF" d="M24.482,18.064h-0.004c-0.097-0.038-0.208,0.006-0.249,0.105c-0.037,0.099,0.01,0.211,0.109,0.248h0.001
					c0.023,0.01,0.048,0.014,0.072,0.014c0.075,0,0.147-0.043,0.176-0.119C24.626,18.216,24.578,18.104,24.482,18.064z"/>
			</g>
		</g>
	</g>
</g>
</svg>
